<svg xmlns="http://www.w3.org/2000/svg" viewBox="0 0 1200 800" preserveAspectRatio="xMidYMid slice">
  <defs>
    <linearGradient id="bg" x1="0" y1="0" x2="1" y2="1"><stop offset="0" stop-color="#431407"/><stop offset="1" stop-color="#c2410c"/></linearGradient>
    <radialGradient id="g" cx="0.85" cy="0.15" r="0.7"><stop offset="0" stop-color="#fdba74" stop-opacity="0.5"/><stop offset="1" stop-color="#fdba74" stop-opacity="0"/></radialGradient>
    <pattern id="grid" width="60" height="60" patternUnits="userSpaceOnUse"><path d="M60 0H0V60" fill="none" stroke="#fff" stroke-opacity="0.06"/></pattern>
  </defs>
  <rect width="1200" height="800" fill="url(#bg)"/><rect width="1200" height="800" fill="url(#grid)"/><rect width="1200" height="800" fill="url(#g)"/>
  <g transform="translate(470 120)">
    <rect width="260" height="560" rx="40" fill="#fff" fill-opacity="0.1" stroke="#fff" stroke-opacity="0.35" stroke-width="2"/>
    <rect x="14" y="14" width="232" height="532" rx="30" fill="#fff" fill-opacity="0.07"/>
    <rect x="40" y="60" width="180" height="120" rx="18" fill="#fff" fill-opacity="0.16"/>
    <rect x="60" y="90" width="100" height="12" rx="6" fill="#fff" fill-opacity="0.5"/>
    <rect x="60" y="112" width="60" height="10" rx="5" fill="#fff" fill-opacity="0.3"/>
    <rect x="40" y="210" width="180" height="70" rx="14" fill="#fff" fill-opacity="0.14"/>
    <rect x="40" y="292" width="180" height="70" rx="14" fill="#fff" fill-opacity="0.22"/>
    <rect x="40" y="374" width="180" height="70" rx="14" fill="#fff" fill-opacity="0.14"/>
    <rect x="40" y="480" width="180" height="44" rx="14" fill="#fff" fill-opacity="0.45"/>
  </g>
  <g fill="none" stroke="#fff" stroke-opacity="0.15" stroke-width="1.5"><circle cx="600" cy="400" r="330"/><circle cx="600" cy="400" r="440"/></g>
</svg>
