<svg xmlns="http://www.w3.org/2000/svg" viewBox="0 0 900 1200" preserveAspectRatio="xMidYMid slice">
  <defs>
    <linearGradient id="bg" x1="0" y1="0" x2="1" y2="1">
      <stop offset="0" stop-color="#02233f"/>
      <stop offset="1" stop-color="#0b3d63"/>
    </linearGradient>
    <radialGradient id="g1" cx="0.8" cy="0.2" r="0.6">
      <stop offset="0" stop-color="#22d3ee" stop-opacity="0.5"/>
      <stop offset="1" stop-color="#22d3ee" stop-opacity="0"/>
    </radialGradient>
    <radialGradient id="g2" cx="0.1" cy="0.9" r="0.6">
      <stop offset="0" stop-color="#a78bfa" stop-opacity="0.45"/>
      <stop offset="1" stop-color="#a78bfa" stop-opacity="0"/>
    </radialGradient>
    <pattern id="grid" width="60" height="60" patternUnits="userSpaceOnUse">
      <path d="M60 0H0V60" fill="none" stroke="#ffffff" stroke-opacity="0.06" stroke-width="1"/>
    </pattern>
  </defs>
  <rect width="900" height="1200" fill="url(#bg)"/>
  <rect width="900" height="1200" fill="url(#grid)"/>
  <rect width="900" height="1200" fill="url(#g1)"/>
  <rect width="900" height="1200" fill="url(#g2)"/>
  <g fill="none" stroke="#ffffff" stroke-opacity="0.14" stroke-width="1.5">
    <circle cx="450" cy="600" r="220"/>
    <circle cx="450" cy="600" r="340"/>
    <circle cx="450" cy="600" r="470"/>
  </g>
  <g transform="translate(330 380)">
    <rect width="240" height="440" rx="36" fill="#ffffff" fill-opacity="0.08" stroke="#ffffff" stroke-opacity="0.3" stroke-width="2"/>
    <rect x="14" y="14" width="212" height="412" rx="28" fill="#ffffff" fill-opacity="0.08"/>
    <rect x="40" y="70" width="160" height="14" rx="7" fill="#ffffff" fill-opacity="0.4"/>
    <rect x="40" y="100" width="110" height="10" rx="5" fill="#ffffff" fill-opacity="0.25"/>
    <rect x="40" y="150" width="160" height="44" rx="12" fill="#ffffff" fill-opacity="0.14"/>
    <rect x="40" y="206" width="160" height="44" rx="12" fill="#ffffff" fill-opacity="0.14"/>
    <rect x="40" y="262" width="160" height="90" rx="12" fill="#ffffff" fill-opacity="0.14"/>
    <rect x="40" y="368" width="160" height="40" rx="12" fill="#ffffff" fill-opacity="0.4"/>
  </g>
</svg>
